<svg
  className="_1eqm7"
  fill="none"
  height="24"
  stroke="currentColor"
  stroke-linecap="round"
  viewBox="0 0 24 24"
  width="24"
  xmlns="http://www.w3.org/2000/svg"
  xmlnsXlink="http://www.w3.org/1999/xlink"
>
                    <g
    fill="none"
    stroke-width="0"
    fill-rule="evenodd"
    transform="translate(0 2)"
  >
                      <path
      fill="#1BA0E2"
      d="M24,2.97387637 C24,2.97387637 17.9085447,9.9106988 16.4192056,13.1155965 C15.9686335,14.085179 16.4889188,14.9816473 16.7427565,15.3942092 C18.3609669,18.0242833 21.0000221,19 20.6401998,19 C20.2803774,19 19.0199836,17.8706415 15.757682,16.9460598 C12.4953805,16.021478 9.95011816,15.8799789 8.39303111,14.9939551 C7.04930089,14.2293371 7.15528107,13.3563338 6.58541702,12.8628725 C4.71336403,11.2418093 -0.0333974338,10.5614596 0.000177191119,10.5600858 C1.46864789,10.5 3.11012089,11.2220174 4.05513058,11.2220174 C5.00014028,11.2220174 5.50013658,10 6.84143921,10.7770155 C7.19322569,10.9808051 7.13077285,11.0542003 8.28272652,11.3787906 C9.43468019,11.7033809 10.0001034,10 9.1804948,7.79193814 C8.87698937,6.97428102 8.61532006,6.13212456 8.61532005,4.70396341 C8.61532003,2.74559775 11.9447535,0.656164411 13.9739579,0 C13.7615161,2.75099588 13.7501791,4.7651663 13.8587012,6.33769465 C18.4023804,3.51926226 24,2.97387637 24,2.97387637 Z"
    />
                      <path
      fill="#0770CD"
      d="M16.4191496,13.1155965 C16.1759759,13.6388762 16.2155876,14.1408598 16.3434811,14.5569716 C16.0904679,14.10614 15.8742984,13.6412562 15.7501625,13.3944116 C15.4666264,12.8305996 15.1716194,12.1600334 14.8958447,11.3813115 C14.4548033,9.9718172 14.0276967,8.76384991 13.8586263,6.33769465 C14.5112657,5.93286712 15.1856493,5.57493531 15.862066,5.25877949 C15.8113997,8.12264637 16.1497844,11.1052291 16.4529596,13.04385 C16.4414405,13.0679669 16.4301691,13.0918838 16.4191496,13.1155965 Z"
    />
                    </g>
                  </svg>
