<svg data-name="Layer 1">
  <path
    d="M9.675 6.365h-.049a1.627 1.627 0 00-1.22.526 1.651 1.651 0 00-.48 1.242 1.638 1.638 0 00.515 1.219 1.704 1.704 0 001.234.502 1.74 1.74 0 001.233-2.975 1.686 1.686 0 00-1.233-.514zm12.31 11.828V5.625a1.79 1.79 0 00-.335-1.183A1.417 1.417 0 0020.62 4H3.4a1.438 1.438 0 00-1.054.43 1.72 1.72 0 00-.335 1.243v12.615a1.64 1.64 0 00.407 1.29 1.619 1.619 0 001.27.406h16.524a1.748 1.748 0 001.39-.406 1.82 1.82 0 00.382-1.385zm-1.006-3.107l-.12-.071-.384-.407-1.891-2.317-.36-.454-2.251-2.748q-.48-.62-.898-.62t-.898.62l-.455.573q-.815 1.028-1.221 1.554L10.489 13.7a2.082 2.082 0 01-.43.441.708.708 0 01-.409.132 1.158 1.158 0 01-.861-.573l-.48-.55-.095-.168q-.264-.333-.815-1.003l-.143-.191a.98.98 0 00-.743-.43.957.957 0 00-.766.43l-.48.597q-.574.694-.862 1.028l-.071.12-.743.907a6.004 6.004 0 01-.239.287l-.264.334V5.888a3.8 3.8 0 01.025-.574.275.275 0 01.203-.227 3.12 3.12 0 01.587-.036h16.285a.744.744 0 01.6.168.854.854 0 01.19.62z"
    fill="#969696"
  />
</svg>
