<svg xmlns="http://www.w3.org/2000/svg" viewBox="0 0 64 64"><linearGradient id="fT88X92sV7iQ3~9EI0uO7a" x1="24.836" x2="24.836" y1="61.333" y2="6.488" gradientTransform="matrix(1 0 0 -1 0 66)" gradientUnits="userSpaceOnUse"><stop offset="0" stop-color="#1a6dff"/><stop offset="1" stop-color="#c822ff"/></linearGradient><path fill="url(#fT88X92sV7iQ3~9EI0uO7a)" d="M44.672,59.188c-0.084,0-0.17-0.011-0.254-0.033L4.745,48.715c-0.256-0.067-0.476-0.233-0.609-0.463s-0.171-0.502-0.104-0.759L14.473,7.819c0.103-0.391,0.432-0.682,0.833-0.736c0.397-0.049,0.795,0.139,0.999,0.487l12.322,21.125c0.134,0.229,0.171,0.502,0.104,0.759l-1.384,5.258l5.258,1.385c0.257,0.067,0.476,0.233,0.609,0.463l12.323,21.124c0.204,0.35,0.177,0.787-0.068,1.109C45.276,59.045,44.979,59.188,44.672,59.188z M6.221,47.035l36.371,9.571L31.694,37.925l-5.825-1.533c-0.534-0.141-0.853-0.688-0.713-1.222l1.534-5.824L15.792,10.663L6.221,47.035z"/><linearGradient id="fT88X92sV7iQ3~9EI0uO7b" x1="39.163" x2="39.163" y1="61.333" y2="6.488" gradientTransform="matrix(1 0 0 -1 0 66)" gradientUnits="userSpaceOnUse"><stop offset="0" stop-color="#1a6dff"/><stop offset="1" stop-color="#c822ff"/></linearGradient><path fill="url(#fT88X92sV7iQ3~9EI0uO7b)" d="M48.559,56.92c-0.352,0-0.683-0.187-0.863-0.496L35.372,35.298c-0.134-0.229-0.171-0.502-0.104-0.759l1.384-5.257l-5.258-1.383c-0.256-0.067-0.476-0.233-0.609-0.463L18.463,6.311c-0.204-0.35-0.177-0.787,0.068-1.109c0.245-0.32,0.659-0.466,1.05-0.361L59.253,15.28c0.256,0.067,0.476,0.233,0.609,0.463s0.171,0.502,0.104,0.759l-10.44,39.674c-0.103,0.391-0.432,0.682-0.833,0.736C48.649,56.917,48.604,56.92,48.559,56.92z M37.309,34.647l10.898,18.684l9.571-36.372L21.407,7.388l10.897,18.684l5.825,1.531c0.256,0.067,0.476,0.233,0.609,0.463s0.171,0.502,0.104,0.759L37.309,34.647z"/><linearGradient id="fT88X92sV7iQ3~9EI0uO7c" x1="22.799" x2="22.799" y1="44.98" y2="15.72" gradientTransform="matrix(1 0 0 -1 0 66)" gradientUnits="userSpaceOnUse"><stop offset="0" stop-color="#6dc7ff"/><stop offset="1" stop-color="#e6abff"/></linearGradient><path fill="url(#fT88X92sV7iQ3~9EI0uO7c)" d="M32.845,47.837L13.55,42.76l5.078-19.296l-1.426-2.444l-5.841,22.198c-0.067,0.257-0.03,0.529,0.104,0.759s0.353,0.396,0.609,0.463l22.196,5.84L32.845,47.837z"/><linearGradient id="fT88X92sV7iQ3~9EI0uO7d" x1="41.197" x2="41.197" y1="52.288" y2="23.027" gradientTransform="matrix(1 0 0 -1 0 66)" gradientUnits="userSpaceOnUse"><stop offset="0" stop-color="#6dc7ff"/><stop offset="1" stop-color="#e6abff"/></linearGradient><path fill="url(#fT88X92sV7iQ3~9EI0uO7d)" d="M31.151,16.156l19.296,5.08L45.37,40.529l1.425,2.444l5.841-22.196c0.14-0.534-0.179-1.081-0.713-1.222l-22.197-5.843L31.151,16.156z"/></svg>